<svg width="800" height="800" viewBox="0 0 800 800" fill="none" xmlns="http://www.w3.org/2000/svg">
<g clip-path="url(#clip0_4_20)">
<path d="M609.091 274.616L574.516 309.191C590.738 339.03 599.974 373.013 599.974 409.245C599.974 524.574 506.076 618.472 390.747 618.472C275.417 618.472 181.52 524.574 181.52 409.245C181.52 293.915 275.417 200.017 390.747 200.017C426.98 200.017 460.963 209.253 490.8 225.475L525.375 190.9C486.182 166.626 440.121 152.654 390.745 152.654C249.247 152.654 134.155 267.747 134.155 409.245C134.155 550.742 249.249 665.837 390.747 665.837C532.244 665.837 647.337 550.744 647.337 409.248C647.337 359.872 633.363 313.811 609.091 274.616ZM513.062 370.765L471.501 412.21C469.962 455.546 434.441 490.119 390.748 490.119C346.109 490.119 309.876 453.888 309.876 409.248C309.876 365.555 344.451 330.033 387.788 328.495L429.35 287.053C417.154 283.145 404.247 281.014 390.75 281.014C320.061 281.014 262.514 338.56 262.514 409.25C262.514 479.939 320.061 537.487 390.75 537.487C461.44 537.487 518.986 479.939 518.986 409.25C518.983 395.866 516.97 382.843 513.062 370.765ZM725.722 208.309L691.148 242.885C718.5 292.142 734.13 348.86 734.13 409.248C734.13 598.583 580.081 752.633 390.747 752.633C201.412 752.633 47.3632 598.583 47.3632 409.246C47.3632 219.912 201.412 65.8628 390.747 65.8628C451.135 65.8628 507.851 81.4926 557.11 108.845L591.685 74.2697C532.953 38.8675 464.16 18.5013 390.747 18.5013C175.244 18.5013 0 193.745 0 409.246C0 624.747 175.244 799.993 390.747 799.993C606.25 799.993 781.493 624.747 781.493 409.246C781.493 335.835 761.127 267.04 725.722 208.309ZM674.406 209.316L629.196 204.296L406.472 427.011C397.224 436.259 382.234 436.259 372.986 427.011C363.738 417.761 363.738 402.772 372.986 393.524L595.699 170.809L590.679 125.601L716.275 0.00521851L733.018 66.9894L800 83.7319L674.406 209.316Z" fill="#93A1D0"/>
</g>
<defs>
<clipPath id="clip0_4_20">
<rect width="800" height="800" fill="white"/>
</clipPath>
</defs>
</svg>
