<svg width="800" height="800" viewBox="0 0 800 800" fill="none" xmlns="http://www.w3.org/2000/svg">
<path d="M336.007 263.237C371.893 198.857 389.84 166.667 416.667 166.667C443.493 166.667 461.44 198.857 497.327 263.237L506.613 279.893C516.81 298.188 521.91 307.336 529.86 313.371C537.81 319.407 547.713 321.647 567.517 326.128L585.547 330.207C655.237 345.977 690.083 353.86 698.373 380.52C706.663 407.177 682.907 434.957 635.397 490.513L623.107 504.887C609.603 520.677 602.853 528.57 599.817 538.337C596.78 548.1 597.8 558.633 599.843 579.697L601.7 598.873C608.883 673 612.473 710.063 590.77 726.54C569.067 743.017 536.44 727.993 471.19 697.95L454.307 690.177C435.767 681.64 426.493 677.37 416.667 677.37C406.84 677.37 397.567 681.64 379.027 690.177L362.143 697.95C296.892 727.993 264.267 743.017 242.563 726.54C220.858 710.063 224.45 673 231.633 598.873L233.491 579.697C235.532 558.633 236.553 548.1 233.516 538.337C230.479 528.57 223.729 520.677 210.228 504.887L197.936 490.513C150.425 434.957 126.67 407.177 134.96 380.52C143.25 353.86 178.096 345.977 247.787 330.207L265.817 326.128C285.621 321.647 295.523 319.407 303.473 313.371C311.424 307.336 316.523 298.188 326.722 279.893L336.007 263.237Z" stroke="#93A1D0" stroke-width="50"/>
<path d="M166.329 66.6667C166.329 66.6667 175.927 115.257 196.97 136.158C218.012 157.06 266.667 166.329 266.667 166.329C266.667 166.329 218.076 175.927 197.175 196.97C176.274 218.012 167.004 266.667 167.004 266.667C167.004 266.667 157.407 218.076 136.364 197.175C115.321 176.274 66.6667 167.004 66.6667 167.004C66.6667 167.004 115.257 157.407 136.158 136.364C157.06 115.321 166.329 66.6667 166.329 66.6667Z" stroke="#93A1D0" stroke-width="33.3333" stroke-linejoin="round"/>
<path d="M600 166.667H666.667M633.333 200V133.333" stroke="#93A1D0" stroke-width="50" stroke-linecap="round"/>
</svg>
